<mxfile host="65bd71144e">
    <diagram id="IJsAaFk1BmgpY0GeroS_" name="Page-1">
        <mxGraphModel dx="722" dy="551" grid="1" gridSize="10" guides="1" tooltips="1" connect="1" arrows="1" fold="1" page="1" pageScale="1" pageWidth="827" pageHeight="1169" background="#ffffff" math="0" shadow="0">
            <root>
                <mxCell id="0"/>
                <mxCell id="1" parent="0"/>
                <mxCell id="6" style="edgeStyle=none;html=1;exitX=0;exitY=0.5;exitDx=0;exitDy=0;entryX=1;entryY=0.5;entryDx=0;entryDy=0;strokeColor=#000000;" parent="1" edge="1">
                    <mxGeometry relative="1" as="geometry">
                        <mxPoint x="310" y="161" as="sourcePoint"/>
                        <mxPoint x="180" y="161" as="targetPoint"/>
                    </mxGeometry>
                </mxCell>
                <mxCell id="16" style="edgeStyle=none;html=1;exitX=0.5;exitY=1;exitDx=0;exitDy=0;entryX=0.5;entryY=0;entryDx=0;entryDy=0;fontSize=13;fontColor=#0F0000;strokeColor=#000000;" parent="1" source="3" target="13" edge="1">
                    <mxGeometry relative="1" as="geometry"/>
                </mxCell>
                <mxCell id="3" value="&lt;b style=&quot;font-size: 13px&quot;&gt;&lt;font color=&quot;#000000&quot; style=&quot;font-size: 13px&quot;&gt;Login&lt;br&gt;2.0&lt;/font&gt;&lt;/b&gt;" style="ellipse;whiteSpace=wrap;html=1;strokeColor=#000000;fillColor=none;" parent="1" vertex="1">
                    <mxGeometry x="310" y="120" width="130" height="70" as="geometry"/>
                </mxCell>
                <mxCell id="5" style="edgeStyle=none;html=1;exitX=1;exitY=0.25;exitDx=0;exitDy=0;entryX=0.036;entryY=0.289;entryDx=0;entryDy=0;entryPerimeter=0;strokeColor=#000000;" parent="1" source="4" target="3" edge="1">
                    <mxGeometry relative="1" as="geometry"/>
                </mxCell>
                <mxCell id="4" value="&lt;b&gt;ADMIN&lt;/b&gt;" style="html=1;dashed=0;whitespace=wrap;fontSize=13;fontColor=#000000;strokeColor=#000000;fillColor=none;" parent="1" vertex="1">
                    <mxGeometry x="40" y="125" width="140" height="60" as="geometry"/>
                </mxCell>
                <mxCell id="9" style="edgeStyle=none;html=1;exitX=0;exitY=0.5;exitDx=0;exitDy=0;entryX=1;entryY=0.5;entryDx=0;entryDy=0;strokeColor=#000000;" parent="1" edge="1">
                    <mxGeometry relative="1" as="geometry">
                        <mxPoint x="570" y="161" as="sourcePoint"/>
                        <mxPoint x="440" y="161" as="targetPoint"/>
                    </mxGeometry>
                </mxCell>
                <mxCell id="10" style="edgeStyle=none;html=1;exitX=0.952;exitY=0.282;exitDx=0;exitDy=0;entryX=0.036;entryY=0.289;entryDx=0;entryDy=0;entryPerimeter=0;strokeColor=#000000;exitPerimeter=0;" parent="1" source="3" edge="1">
                    <mxGeometry relative="1" as="geometry">
                        <mxPoint x="440" y="140" as="sourcePoint"/>
                        <mxPoint x="574.68" y="140.23000000000002" as="targetPoint"/>
                    </mxGeometry>
                </mxCell>
                <mxCell id="11" value="&lt;font style=&quot;font-size: 13px&quot; color=&quot;#000000&quot;&gt;&lt;b&gt;admin&lt;/b&gt;&lt;/font&gt;" style="html=1;dashed=0;whitespace=wrap;shape=partialRectangle;right=0;left=0;fillColor=none;strokeColor=#000000;" parent="1" vertex="1">
                    <mxGeometry x="600" y="130" width="100" height="30" as="geometry"/>
                </mxCell>
                <mxCell id="17" style="edgeStyle=none;html=1;exitX=0.5;exitY=1;exitDx=0;exitDy=0;entryX=0.5;entryY=0;entryDx=0;entryDy=0;fontSize=13;fontColor=#0F0000;strokeColor=#000000;" parent="1" source="13" target="14" edge="1">
                    <mxGeometry relative="1" as="geometry"/>
                </mxCell>
                <mxCell id="20" style="edgeStyle=elbowEdgeStyle;elbow=vertical;html=1;exitX=0.956;exitY=0.294;exitDx=0;exitDy=0;entryX=0.5;entryY=0;entryDx=0;entryDy=0;fontSize=13;fontColor=#0F0000;strokeColor=#000000;exitPerimeter=0;rounded=0;" parent="1" source="13" edge="1">
                    <mxGeometry relative="1" as="geometry">
                        <mxPoint x="437.2800000000001" y="240.58000000000004" as="sourcePoint"/>
                        <mxPoint x="653" y="340" as="targetPoint"/>
                        <Array as="points">
                            <mxPoint x="533" y="240"/>
                            <mxPoint x="553" y="255"/>
                        </Array>
                    </mxGeometry>
                </mxCell>
                <mxCell id="13" value="&lt;font color=&quot;#000000&quot;&gt;&lt;span style=&quot;font-size: 13px&quot;&gt;&lt;b&gt;Add Category&lt;br&gt;&lt;/b&gt;&lt;/span&gt;&lt;/font&gt;&lt;font style=&quot;font-size: 13px&quot; color=&quot;#000000&quot;&gt;&lt;b&gt;2.1&lt;/b&gt;&lt;/font&gt;" style="ellipse;whiteSpace=wrap;html=1;strokeColor=#000000;fillColor=none;" parent="1" vertex="1">
                    <mxGeometry x="310" y="220" width="130" height="70" as="geometry"/>
                </mxCell>
                <mxCell id="18" style="edgeStyle=none;html=1;exitX=0.5;exitY=1;exitDx=0;exitDy=0;entryX=0.5;entryY=0;entryDx=0;entryDy=0;fontSize=13;fontColor=#0F0000;strokeColor=#000000;" parent="1" source="14" target="15" edge="1">
                    <mxGeometry relative="1" as="geometry"/>
                </mxCell>
                <mxCell id="22" style="edgeStyle=elbowEdgeStyle;rounded=0;elbow=vertical;html=1;exitX=1;exitY=0.5;exitDx=0;exitDy=0;entryX=0;entryY=0.5;entryDx=0;entryDy=0;fontSize=13;fontColor=#0F0000;strokeColor=#000000;" parent="1" edge="1">
                    <mxGeometry relative="1" as="geometry">
                        <mxPoint x="440" y="349" as="sourcePoint"/>
                        <mxPoint x="600" y="349" as="targetPoint"/>
                    </mxGeometry>
                </mxCell>
                <mxCell id="14" value="&lt;font color=&quot;#000000&quot;&gt;&lt;span style=&quot;font-size: 13px&quot;&gt;&lt;b&gt;Edit / Change the Details&lt;br&gt;&lt;/b&gt;&lt;/span&gt;&lt;/font&gt;&lt;font style=&quot;font-size: 13px&quot; color=&quot;#000000&quot;&gt;&lt;b&gt;2.2&lt;/b&gt;&lt;/font&gt;" style="ellipse;whiteSpace=wrap;html=1;strokeColor=#000000;fillColor=none;" parent="1" vertex="1">
                    <mxGeometry x="310" y="320" width="130" height="70" as="geometry"/>
                </mxCell>
                <mxCell id="24" style="edgeStyle=elbowEdgeStyle;rounded=0;elbow=vertical;html=1;exitX=0.959;exitY=0.295;exitDx=0;exitDy=0;entryX=0.399;entryY=1.022;entryDx=0;entryDy=0;entryPerimeter=0;fontSize=13;fontColor=#0F0000;strokeColor=#000000;exitPerimeter=0;" parent="1" source="15" target="19" edge="1">
                    <mxGeometry relative="1" as="geometry">
                        <Array as="points">
                            <mxPoint x="530" y="440"/>
                            <mxPoint x="540" y="455"/>
                        </Array>
                    </mxGeometry>
                </mxCell>
                <mxCell id="15" value="&lt;font color=&quot;#000000&quot; style=&quot;font-size: 14px&quot;&gt;&lt;span&gt;&lt;b&gt;Delete Category&lt;br&gt;&lt;/b&gt;&lt;/span&gt;&lt;/font&gt;&lt;font color=&quot;#0f0000&quot; style=&quot;font-size: 13px&quot;&gt;&lt;b&gt;2.3&lt;/b&gt;&lt;/font&gt;" style="ellipse;whiteSpace=wrap;html=1;strokeColor=#000000;fillColor=none;" parent="1" vertex="1">
                    <mxGeometry x="310" y="420" width="130" height="70" as="geometry"/>
                </mxCell>
                <mxCell id="21" style="edgeStyle=elbowEdgeStyle;rounded=0;elbow=vertical;html=1;exitX=0.39;exitY=-0.007;exitDx=0;exitDy=0;entryX=1;entryY=0.5;entryDx=0;entryDy=0;fontSize=13;fontColor=#0F0000;strokeColor=#000000;exitPerimeter=0;" parent="1" edge="1" source="19">
                    <mxGeometry relative="1" as="geometry">
                        <mxPoint x="639.8" y="337.73" as="sourcePoint"/>
                        <mxPoint x="440" y="258" as="targetPoint"/>
                        <Array as="points">
                            <mxPoint x="630" y="258"/>
                        </Array>
                    </mxGeometry>
                </mxCell>
                <mxCell id="23" style="edgeStyle=elbowEdgeStyle;rounded=0;elbow=vertical;html=1;exitX=0;exitY=0.75;exitDx=0;exitDy=0;entryX=0.993;entryY=0.617;entryDx=0;entryDy=0;entryPerimeter=0;fontSize=13;fontColor=#0F0000;strokeColor=#000000;" parent="1" edge="1">
                    <mxGeometry relative="1" as="geometry">
                        <mxPoint x="599" y="367.5" as="sourcePoint"/>
                        <mxPoint x="438.0899999999999" y="368.19000000000005" as="targetPoint"/>
                    </mxGeometry>
                </mxCell>
                <mxCell id="25" style="edgeStyle=elbowEdgeStyle;rounded=0;elbow=vertical;html=1;exitX=0.5;exitY=1;exitDx=0;exitDy=0;fontSize=13;fontColor=#0F0000;strokeColor=#000000;entryX=0.999;entryY=0.569;entryDx=0;entryDy=0;entryPerimeter=0;" parent="1" target="15" edge="1">
                    <mxGeometry relative="1" as="geometry">
                        <mxPoint x="653" y="370" as="sourcePoint"/>
                        <mxPoint x="442.3333157097011" y="460" as="targetPoint"/>
                        <Array as="points">
                            <mxPoint x="523" y="460"/>
                            <mxPoint x="533" y="480"/>
                        </Array>
                    </mxGeometry>
                </mxCell>
                <mxCell id="19" value="&lt;b&gt;category&lt;/b&gt;" style="html=1;dashed=0;whitespace=wrap;shape=partialRectangle;right=0;left=0;labelBackgroundColor=none;fontSize=13;fontColor=#0F0000;strokeColor=#000000;fillColor=none;" parent="1" vertex="1">
                    <mxGeometry x="600" y="340" width="100" height="30" as="geometry"/>
                </mxCell>
                <mxCell id="26" value="&lt;span style=&quot;color: rgb(0 , 0 , 0) ; font-family: &amp;#34;helvetica&amp;#34; ; font-size: 13px ; font-style: normal ; font-weight: 700 ; letter-spacing: normal ; text-align: right ; text-indent: 0px ; text-transform: none ; word-spacing: 0px ; display: inline ; float: none&quot;&gt;Acknowledgement&lt;/span&gt;" style="text;whiteSpace=wrap;html=1;fontSize=13;fontColor=#000000;" vertex="1" parent="1">
                    <mxGeometry x="190" y="140" width="140" height="30" as="geometry"/>
                </mxCell>
                <mxCell id="29" value="&lt;b&gt;&lt;font color=&quot;#000000&quot; style=&quot;font-size: 13px&quot;&gt;Login Details&lt;/font&gt;&lt;/b&gt;" style="text;html=1;align=center;verticalAlign=middle;resizable=0;points=[];autosize=1;strokeColor=none;fillColor=none;" vertex="1" parent="1">
                    <mxGeometry x="200" y="125" width="100" height="20" as="geometry"/>
                </mxCell>
                <mxCell id="30" value="&lt;b&gt;Check for Login&lt;/b&gt;" style="text;html=1;align=center;verticalAlign=middle;resizable=0;points=[];autosize=1;strokeColor=none;fillColor=none;fontSize=13;fontColor=#000000;" vertex="1" parent="1">
                    <mxGeometry x="450" y="125" width="110" height="20" as="geometry"/>
                </mxCell>
                <mxCell id="32" value="&lt;span style=&quot;color: rgb(0 , 0 , 0) ; font-family: &amp;#34;helvetica&amp;#34; ; font-size: 13px ; font-style: normal ; font-weight: 700 ; letter-spacing: normal ; text-align: right ; text-indent: 0px ; text-transform: none ; word-spacing: 0px ; display: inline ; float: none&quot;&gt;Acknowledgement&lt;/span&gt;" style="text;whiteSpace=wrap;html=1;fontSize=13;fontColor=#000000;" vertex="1" parent="1">
                    <mxGeometry x="450" y="139" width="140" height="30" as="geometry"/>
                </mxCell>
                <mxCell id="35" value="&lt;b&gt;Add Data&lt;/b&gt;" style="text;html=1;align=center;verticalAlign=middle;resizable=0;points=[];autosize=1;strokeColor=none;fillColor=none;fontSize=13;fontColor=#000000;" vertex="1" parent="1">
                    <mxGeometry x="465" y="220" width="70" height="20" as="geometry"/>
                </mxCell>
                <mxCell id="36" value="&lt;b&gt;Acknowledgement&lt;/b&gt;" style="text;html=1;align=center;verticalAlign=middle;resizable=0;points=[];autosize=1;strokeColor=none;fillColor=none;fontSize=13;fontColor=#000000;" vertex="1" parent="1">
                    <mxGeometry x="455" y="240" width="130" height="20" as="geometry"/>
                </mxCell>
                <mxCell id="37" value="&lt;b&gt;Update Data&lt;/b&gt;" style="text;html=1;align=center;verticalAlign=middle;resizable=0;points=[];autosize=1;strokeColor=none;fillColor=none;fontSize=13;fontColor=#000000;" vertex="1" parent="1">
                    <mxGeometry x="455" y="330" width="90" height="20" as="geometry"/>
                </mxCell>
                <mxCell id="38" value="&lt;b&gt;Acknowledgement&lt;/b&gt;" style="text;html=1;align=center;verticalAlign=middle;resizable=0;points=[];autosize=1;strokeColor=none;fillColor=none;fontSize=13;fontColor=#000000;" vertex="1" parent="1">
                    <mxGeometry x="455" y="350" width="130" height="20" as="geometry"/>
                </mxCell>
                <mxCell id="39" value="&lt;b&gt;Remove Data&lt;/b&gt;" style="text;html=1;align=center;verticalAlign=middle;resizable=0;points=[];autosize=1;strokeColor=none;fillColor=none;fontSize=13;fontColor=#000000;" vertex="1" parent="1">
                    <mxGeometry x="450" y="420" width="100" height="20" as="geometry"/>
                </mxCell>
                <mxCell id="40" value="&lt;b&gt;Acknowledgement&lt;/b&gt;" style="text;html=1;align=center;verticalAlign=middle;resizable=0;points=[];autosize=1;strokeColor=none;fillColor=none;fontSize=13;fontColor=#000000;" vertex="1" parent="1">
                    <mxGeometry x="455" y="440" width="130" height="20" as="geometry"/>
                </mxCell>
            </root>
        </mxGraphModel>
    </diagram>
</mxfile>